<svg xmlns="http://www.w3.org/2000/svg" viewBox="-14 -14 560 116" width="560" height="116">
  <rect x="4" y="4" width="72" height="72" rx="4" fill="#f4f5f2" />
  <circle cx="13" cy="13" r="3" fill="none" stroke="#0d1b2a" stroke-width="0.8" opacity="0.25"/>
  <line x1="16" y1="4" x2="16" y2="-2" stroke="#0d1b2a" stroke-width="3.5" stroke-linecap="square" opacity="0.35"/>
  <line x1="30" y1="4" x2="30" y2="-2" stroke="#0d1b2a" stroke-width="3.5" stroke-linecap="square" opacity="0.35"/>
  <line x1="50" y1="4" x2="50" y2="-2" stroke="#0d1b2a" stroke-width="3.5" stroke-linecap="square" opacity="0.35"/>
  <line x1="64" y1="4" x2="64" y2="-2" stroke="#0d1b2a" stroke-width="3.5" stroke-linecap="square" opacity="0.35"/>
  <line x1="16" y1="76" x2="16" y2="82" stroke="#0d1b2a" stroke-width="3.5" stroke-linecap="square" opacity="0.35"/>
  <line x1="30" y1="76" x2="30" y2="82" stroke="#0d1b2a" stroke-width="3.5" stroke-linecap="square" opacity="0.35"/>
  <line x1="50" y1="76" x2="50" y2="82" stroke="#0d1b2a" stroke-width="3.5" stroke-linecap="square" opacity="0.35"/>
  <line x1="64" y1="76" x2="64" y2="82" stroke="#0d1b2a" stroke-width="3.5" stroke-linecap="square" opacity="0.35"/>
  <line x1="4" y1="16" x2="-2" y2="16" stroke="#0d1b2a" stroke-width="3.5" stroke-linecap="square" opacity="0.35"/>
  <line x1="4" y1="30" x2="-2" y2="30" stroke="#0d1b2a" stroke-width="3.5" stroke-linecap="square" opacity="0.35"/>
  <line x1="4" y1="50" x2="-2" y2="50" stroke="#0d1b2a" stroke-width="3.5" stroke-linecap="square" opacity="0.35"/>
  <line x1="4" y1="64" x2="-2" y2="64" stroke="#0d1b2a" stroke-width="3.5" stroke-linecap="square" opacity="0.35"/>
  <line x1="76" y1="16" x2="82" y2="16" stroke="#0d1b2a" stroke-width="3.5" stroke-linecap="square" opacity="0.35"/>
  <line x1="76" y1="30" x2="82" y2="30" stroke="#0d1b2a" stroke-width="3.5" stroke-linecap="square" opacity="0.35"/>
  <line x1="76" y1="50" x2="82" y2="50" stroke="#0d1b2a" stroke-width="3.5" stroke-linecap="square" opacity="0.35"/>
  <line x1="76" y1="64" x2="82" y2="64" stroke="#0d1b2a" stroke-width="3.5" stroke-linecap="square" opacity="0.35"/>

  <line x1="10" y1="22" x2="38" y2="22" stroke="#0d1b2a" stroke-width="4.5" stroke-linecap="round"/>
  <line x1="24" y1="22" x2="24" y2="66" stroke="#0d1b2a" stroke-width="4.5" stroke-linecap="round"/>
  <line x1="38" y1="22" x2="68" y2="22" stroke="#0d1b2a" stroke-width="4.5" stroke-linecap="round"/>
  <line x1="38" y1="22" x2="38" y2="42" stroke="#0d1b2a" stroke-width="4.5" stroke-linecap="round"/>
  <line x1="38" y1="42" x2="68" y2="42" stroke="#0d1b2a" stroke-width="4.5" stroke-linecap="round"/>
  <line x1="68" y1="42" x2="68" y2="62" stroke="#0d1b2a" stroke-width="4.5" stroke-linecap="round"/>
  <line x1="38" y1="62" x2="68" y2="62" stroke="#0d1b2a" stroke-width="4.5" stroke-linecap="round"/>
  <circle cx="10" cy="22" r="5" fill="#0d1b2a"/>
  <circle cx="24" cy="66" r="5" fill="#0d1b2a"/>
  <circle cx="38" cy="22" r="7" fill="#0d1b2a"/>
  <circle cx="68" cy="22" r="4" fill="#0d1b2a" opacity="0.4"/>
  <circle cx="38" cy="42" r="4" fill="#0d1b2a" opacity="0.4"/>
  <circle cx="68" cy="42" r="4" fill="#0d1b2a" opacity="0.4"/>
  <circle cx="68" cy="62" r="4" fill="#0d1b2a" opacity="0.4"/>
  <circle cx="38" cy="62" r="5" fill="#0d1b2a"/>
  <text x="104" y="42" font-family="'DM Sans', Georgia, serif" font-size="22" font-weight="400" fill="#f4f5f2" letter-spacing="-0.3">Tommy Skogstad</text>
  <line x1="104" y1="48" x2="548" y2="48" stroke="#f4f5f2" stroke-width="0.5" opacity="0.15"/>
  <text x="104" y="62" font-family="'DM Mono', monospace" font-size="9" fill="#7a96b0" letter-spacing="2">PROSJEKTER OG INFRASTRUKTUR</text>
</svg>
